P3
# CREATOR: GIMP PNM Filter Version 1.1
100 28
255
0
2
0
7
0
0
7
0
0
0
2
0
2
0
5
0
1
5
0
2
0
0
2
0
0
2
0
0
2
0
0
2
0
0
2
0
0
2
0
0
2
0
0
2
0
2
0
5
0
2
0
0
2
0
0
2
0
0
2
0
0
2
0
7
0
0
7
0
0
0
2
0
2
0
5
2
0
5
0
1
5
0
2
0
0
2
0
0
2
0
7
0
0
0
2
0
0
2
0
2
0
5
0
2
0
0
2
0
7
0
0
0
2
0
0
2
0
0
2
0
0
2
0
0
2
0
0
2
0
0
2
0
0
2
0
0
2
0
0
2
0
0
2
0
0
2
0
0
2
0
0
2
0
7
0
0
2
0
5
0
1
5
0
2
0
3
6
1
7
0
0
0
2
0
0
2
0
0
2
0
0
2
0
7
0
0
2
0
5
0
2
0
0
2
0
0
2
0
0
2
0
0
2
0
0
2
0
0
2
0
7
0
0
0
2
0
0
2
0
7
0
0
0
2
0
0
2
0
0
2
0
0
2
0
0
2
0
0
2
0
0
2
0
0
2
0
0
2
0
0
2
0
0
2
0
0
2
0
0
2
0
0
2
0
0
2
0
0
2
0
0
2
0
0
2
0
0
2
0
0
2
0
0
2
0
0
2
0
0
2
0
0
2
0
0
2
0
0
2
0
0
1
5
0
2
0
0
2
0
0
2
0
0
2
0
0
2
0
0
2
0
0
2
0
0
2
0
0
2
0
0
2
0
0
2
0
0
2
0
0
2
0
0
2
0
0
2
0
0
2
0
7
0
0
0
2
0
0
2
0
0
2
0
7
0
0
0
2
0
113
108
107
155
149
147
141
129
129
76
71
70
0
2
0
7
0
0
7
0
0
0
2
0
0
2
0
0
2
0
0
2
0
7
0
0
7
0
0
7
0
0
0
2
0
0
2
0
0
2
0
0
2
0
0
2
0
0
2
0
0
2
0
0
2
0
0
2
0
0
2
0
0
2
0
0
2
0
0
2
0
2
0
5
2
0
5
7
0
0
7
0
0
0
2
0
2
0
5
0
2
0
0
2
0
0
2
0
0
2
0
0
2
0
0
2
0
0
2
0
7
0
0
7
0
0
7
0
0
7
0
0
7
0
0
7
0
0
0
2
0
0
2
0
7
0
0
7
0
0
7
0
0
0
2
0
0
2
0
0
2
0
0
2
0
0
2
0
0
2
0
0
2
0
0
2
0
0
2
0
0
2
0
0
2
0
0
2
0
0
2
0
0
2
0
0
2
0
0
2
0
0
2
0
0
2
0
0
2
0
0
2
0
0
2
0
0
2
0
0
2
0
0
2
0
0
2
0
0
2
0
2
0
5
187
182
181
254
255
252
254
252
255
254
255
252
0
2
0
0
2
0
0
2
0
0
2
0
0
2
0
0
2
0
0
2
0
0
2
0
7
0
0
254
255
252
254
255
252
254
255
252
33
30
29
7
0
0
0
2
0
56
51
50
254
255
252
254
255
252
251
253
250
254
255
252
254
252
255
254
255
252
254
255
252
254
255
252
230
232
229
0
2
0
0
2
0
0
2
0
227
102
39
224
92
25
219
94
23
87
36
16
0
2
0
0
2
0
0
2
0
0
2
0
0
2
0
0
2
0
0
2
0
0
2
0
0
2
0
0
2
0
0
2
0
0
2
0
0
2
0
0
2
0
168
74
38
219
94
23
224
92
25
223
99
44
0
1
5
0
2
0
0
2
0
0
2
0
0
2
0
0
2
0
0
2
0
0
2
0
219
94
23
224
92
25
224
92
25
224
92
25
222
91
33
224
92
25
224
92
25
224
92
25
222
97
35
174
81
42
7
0
0
0
2
0
0
1
5
0
2
0
0
2
0
0
2
0
0
2
0
0
2
0
0
2
0
0
2
0
0
2
0
0
2
0
0
2
0
0
2
0
0
2
0
0
2
0
0
2
0
0
2
0
0
2
0
0
2
0
0
2
0
0
2
0
0
2
0
0
2
0
0
2
0
0
2
0
0
2
0
7
0
0
0
2
0
254
255
252
251
253
250
254
255
252
0
2
0
0
2
0
0
2
0
0
2
0
0
2
0
0
2
0
0
2
0
0
2
0
76
71
70
254
252
255
255
251
250
254
255
252
7
0
0
0
1
5
76
71
70
251
253
250
254
255
252
254
255
252
254
255
252
254
255
252
254
255
252
254
255
252
248
254
255
248
254
255
254
255
252
7
0
0
0
2
0
0
2
0
222
104
38
224
92
25
219
94
23
89
38
12
0
2
0
0
2
0
0
2
0
0
2
0
0
2
0
0
2
0
0
2
0
0
2
0
0
2
0
0
2
0
0
2
0
0
2
0
0
2
0
0
1
5
225
93
26
219
94
23
219
94
23
219
94
23
24
2
5
7
0
0
0
2
0
0
2
0
0
2
0
0
2
0
0
1
5
0
2
0
219
94
23
224
92
25
224
92
25
219
94
23
222
91
33
224
92
25
219
94
23
224
92
25
219
94
23
225
92
14
218
94
32
26
4
0
0
2
0
0
1
5
0
2
0
0
2
0
0
2
0
0
2
0
0
2
0
0
2
0
0
2
0
0
2
0
0
2
0
0
2
0
0
2
0
0
2
0
0
2
0
0
2
0
0
2
0
0
2
0
0
2
0
0
2
0
0
2
0
0
2
0
0
2
0
0
2
0
0
2
0
7
0
0
7
0
0
254
255
252
254
255
252
254
255
252
170
163
162
0
2
0
0
2
0
0
2
0
0
2
0
0
2
0
0
2
0
0
1
5
249
244
242
254
255
252
254
252
255
150
142
136
0
2
0
0
2
0
251
253
250
254
252
255
254
255
252
254
255
252
46
42
41
10
3
1
10
3
1
28
24
23
92
87
86
254
255
252
254
255
252
0
2
0
0
2
0
0
2
0
222
104
38
224
92
25
219
94
23
89
38
12
0
2
0
0
2
0
0
2
0
0
2
0
0
2
0
0
2
0
0
2
0
0
2
0
0
2
0
0
2
0
0
2
0
0
2
0
0
2
0
57
17
8
224
92
25
224
92
25
219
94
23
224
92
25
187
83
42
0
1
5
0
2
0
0
2
0
0
2
0
0
2
0
0
1
5
0
2
0
219
94
23
224
92
25
224
92
25
128
52
25
128
52
25
128
52
25
134
58
28
198
99
52
219
94
23
224
92
25
219
94
23
222
97
26
2
0
5
0
2
0
0
2
0
0
2
0
0
2
0
0
2
0
0
2
0
0
2
0
0
2
0
0
2
0
0
2
0
0
2
0
0
2
0
0
2
0
0
2
0
0
2
0
0
2
0
0
2
0
0
2
0
0
2
0
0
2
0
0
2
0
0
2
0
0
2
0
0
2
0
7
0
0
0
2
0
71
66
65
251
253
250
254
255
252
254
255
252
0
2
0
0
2
0
0
2
0
0
2
0
0
2
0
0
2
0
3
6
1
251
253
250
254
255
252
254
255
252
9
1
0
0
2
0
52
48
47
248
254
255
254
255
252
254
255
252
7
0
0
0
2
0
0
2
0
0
2
0
0
1
5
0
2
0
0
2
0
0
2
0
0
2
0
0
2
0
0
2
0
222
104
38
224
92
25
219
94
23
89
38
12
0
2
0
0
2
0
0
2
0
0
2
0
0
2
0
0
2
0
0
2
0
0
2
0
0
2
0
0
2
0
0
2
0
0
2
0
7
0
0
217
94
39
224
92
25
219
94
23
224
92
25
224
92
25
219
94
23
7
0
0
0
2
0
0
2
0
0
2
0
0
2
0
0
1
5
0
2
0
219
94
23
224
92
25
224
92
25
7
0
0
0
2
0
0
2
0
0
2
0
2
0
5
17
2
3
219
94
23
222
91
33
219
94
23
38
8
1
7
0
0
0
2
0
0
2
0
0
2
0
0
2
0
0
2
0
0
2
0
0
2
0
0
2
0
0
2
0
0
2
0
0
2
0
0
2
0
0
2
0
0
2
0
0
2
0
0
2
0
0
2
0
0
2
0
0
2
0
0
2
0
0
2
0
0
2
0
0
2
0
0
2
0
0
2
0
0
2
0
254
255
252
254
252
255
254
255
252
7
0
0
0
2
0
0
2
0
0
2
0
0
2
0
2
0
5
133
121
122
248
254
255
254
255
252
245
239
238
2
0
5
0
1
5
136
131
129
255
251
250
254
255
252
230
224
223
0
2
0
0
2
0
0
2
0
0
2
0
0
2
0
0
2
0
2
0
5
0
2
0
0
2
0
0
2
0
0
2
0
222
104
38
224
92
25
219
94
23
89
38
12
0
2
0
0
2
0
0
2
0
0
2
0
0
2
0
0
2
0
0
2
0
0
2
0
0
2
0
0
2
0
0
2
0
2
0
5
9
1
0
220
95
11
224
92
25
222
97
26
199
92
46
224
92
25
218
94
32
102
37
18
0
2
0
0
2
0
0
2
0
0
2
0
0
1
5
0
2
0
219
94
23
224
92
25
224
92
25
7
0
0
0
2
0
0
2
0
0
2
0
2
0
5
2
0
5
210
95
36
218
94
32
219
94
23
112
53
39
0
2
0
0
2
0
0
2
0
0
2
0
0
2
0
0
2
0
0
2
0
0
2
0
0
2
0
0
2
0
0
2
0
0
2
0
0
2
0
0
2
0
0
2
0
0
2
0
0
2
0
0
2
0
0
2
0
0
2
0
0
2
0
0
2
0
0
2
0
0
2
0
0
2
0
0
2
0
0
2
0
230
224
223
254
255
252
254
255
252
245
239
238
0
2
0
0
2
0
0
2
0
0
2
0
0
2
0
254
255
252
254
255
252
255
251
250
44
35
35
0
2
0
0
2
0
136
131
129
254
252
255
254
255
252
254
255
252
7
0
0
0
2
0
7
0
0
0
2
0
0
2
0
0
2
0
0
2
0
0
2
0
0
2
0
0
2
0
0
2
0
222
104
38
224
92
25
219
94
23
89
38
12
0
2
0
0
2
0
0
2
0
0
2
0
0
2
0
0
2
0
0
2
0
0
2
0
0
2
0
0
2
0
0
2
0
0
2
0
154
70
37
224
92
25
222
97
26
168
74
38
28
7
2
224
92
25
224
92
25
218
94
32
0
1
5
7
0
0
0
2
0
0
2
0
0
1
5
0
2
0
219
94
23
224
92
25
224
92
25
7
0
0
0
2
0
0
1
5
0
1
5
0
2
0
0
2
0
218
94
32
219
94
23
218
94
32
41
7
3
0
2
0
0
2
0
0
2
0
0
2
0
0
2
0
0
2
0
0
2
0
0
2
0
0
2
0
0
2
0
0
2
0
0
2
0
0
2
0
0
2
0
0
2
0
0
2
0
0
2
0
0
2
0
0
2
0
0
2
0
0
2
0
0
2
0
0
2
0
0
2
0
0
2
0
0
2
0
0
2
0
9
1
0
251
253
250
254
252
255
254
255
252
0
2
0
0
1
5
0
2
0
0
2
0
14
7
6
254
255
252
254
255
252
254
255
252
7
0
0
0
2
0
0
1
5
33
30
29
248
254
255
254
255
252
254
252
255
254
255
252
79
69
69
0
2
0
7
0
0
0
2
0
0
2
0
0
2
0
0
2
0
0
2
0
0
2
0
0
2
0
222
104
38
224
92
25
219
94
23
89
38
12
0
2
0
0
2
0
0
2
0
0
2
0
0
2
0
0
2
0
0
2
0
0
2
0
0
2
0
0
2
0
0
2
0
7
0
0
222
97
26
225
93
26
224
92
25
26
4
0
7
0
0
222
97
35
219
94
23
224
92
25
28
7
2
0
2
0
0
2
0
0
2
0
0
1
5
0
2
0
219
94
23
224
92
25
222
91
33
7
0
0
0
2
0
0
2
0
0
2
0
9
1
0
183
86
35
220
95
11
224
92
25
218
94
32
0
1
5
0
2
0
0
2
0
0
2
0
0
2
0
0
2
0
0
2
0
0
2
0
0
2
0
0
2
0
0
2
0
0
2
0
0
2
0
0
2
0
0
2
0
0
2
0
0
2
0
0
2
0
0
2
0
0
2
0
0
2
0
0
2
0
0
2
0
0
2
0
0
2
0
0
2
0
0
2
0
0
2
0
7
0
0
254
255
252
251
253
250
254
255
252
56
51
50
0
2
0
0
2
0
0
2
0
213
203
196
254
255
252
254
252
255
176
169
168
2
0
5
0
2
0
0
2
0
7
0
0
253
248
246
254
255
252
254
252
255
254
255
252
254
255
252
251
253
250
254
255
252
245
239
238
19
13
12
7
0
0
0
1
5
0
2
0
0
2
0
0
2
0
222
104
38
224
92
25
219
94
23
89
38
12
0
2
0
0
2
0
0
2
0
0
2
0
0
2
0
0
2
0
0
2
0
0
2
0
0
2
0
0
2
0
0
2
0
64
24
17
224
92
25
224
92
25
222
97
35
0
2
0
0
2
0
174
81
42
222
91
33
219
94
23
181
90
49
0
2
0
0
2
0
0
2
0
0
1
5
0
2
0
222
97
26
224
92
25
224
92
25
218
94
32
218
94
32
218
94
32
224
92
25
225
93
26
224
92
25
224
92
25
219
94
23
17
2
3
2
0
5
0
2
0
0
2
0
0
2
0
0
2
0
0
2
0
0
2
0
0
2
0
0
2
0
0
2
0
0
2
0
0
2
0
0
2
0
0
2
0
0
2
0
0
2
0
0
2
0
0
2
0
0
2
0
0
2
0
0
2
0
0
2
0
0
2
0
0
2
0
0
2
0
0
2
0
0
2
0
0
2
0
0
2
0
114
103
103
251
253
250
254
255
252
254
255
252
0
2
0
0
2
0
7
0
0
254
255
252
255
251
250
254
255
252
0
2
0
0
1
5
0
2
0
0
2
0
0
2
0
7
0
0
249
244
242
254
255
252
254
255
252
254
255
252
254
255
252
254
255
252
254
255
252
254
255
252
254
255
252
7
0
0
0
1
5
0
2
0
0
2
0
222
104
38
224
92
25
219
94
23
89
38
12
0
2
0
0
2
0
0
2
0
0
2
0
0
2
0
0
2
0
0
2
0
0
2
0
0
2
0
2
0
5
2
0
5
210
95
36
224
92
25
224
92
25
121
53
26
0
2
0
0
2
0
7
0
0
219
94
23
219
94
23
225
93
26
0
2
0
0
2
0
0
2
0
0
1
5
0
2
0
219
94
23
224
92
25
224
92
25
219
94
23
224
92
25
219
94
23
219
94
23
224
92
25
224
92
25
224
92
25
222
104
38
38
8
1
7
0
0
30
20
19
33
30
29
7
0
0
0
2
0
0
2
0
0
2
0
7
0
0
28
30
27
38
36
40
0
2
0
0
2
0
0
2
0
0
2
0
0
2
0
0
2
0
0
2
0
0
2
0
0
2
0
0
2
0
0
2
0
0
2
0
0
2
0
0
2
0
0
2
0
0
2
0
0
2
0
0
2
0
0
2
0
0
2
0
251
253
250
254
255
252
254
255
252
0
2
0
0
2
0
57
47
46
254
255
252
254
255
252
254
255
252
0
1
5
0
2
0
0
2
0
0
2
0
0
2
0
0
2
0
0
2
0
0
2
0
119
114
112
245
239
238
254
255
252
251
253
250
254
255
252
254
255
252
254
252
255
254
255
252
0
2
0
0
2
0
0
2
0
222
104
38
224
92
25
219
94
23
89
38
12
0
2
0
0
2
0
0
2
0
0
2
0
0
2
0
0
2
0
0
2
0
0
2
0
0
2
0
7
0
0
7
0
0
219
94
23
219
94
23
222
97
26
7
0
0
2
0
5
0
1
5
0
2
0
223
99
44
222
91
33
224
92
25
95
43
22
0
2
0
2
0
5
0
1
5
0
2
0
222
97
26
224
92
25
224
92
25
186
81
34
186
81
34
186
81
34
186
81
34
203
95
40
223
104
29
219
94
23
219
94
23
224
92
25
79
31
22
0
2
0
241
243
239
141
129
129
0
2
0
0
2
0
0
2
0
63
46
44
241
243
239
0
2
0
0
2
0
0
2
0
0
2
0
0
2
0
0
2
0
0
2
0
0
2
0
0
2
0
0
2
0
0
2
0
0
2
0
0
2
0
0
2
0
0
2
0
0
2
0
0
2
0
0
2
0
0
2
0
0
2
0
0
2
0
230
224
223
254
255
252
248
254
255
155
149
147
7
0
0
241
243
239
254
252
255
251
253
250
65
61
60
0
2
0
0
2
0
0
2
0
0
2
0
0
2
0
0
2
0
0
2
0
0
2
0
7
0
0
0
2
0
7
0
0
0
2
0
223
218
216
251
253
250
254
252
255
254
255
252
136
131
129
0
2
0
0
2
0
222
104
38
224
92
25
219
94
23
89
38
12
0
2
0
0
2
0
0
2
0
0
2
0
0
2
0
0
2
0
0
2
0
0
2
0
0
2
0
2
0
5
161
77
39
224
92
25
224
92
25
222
91
33
225
93
26
222
97
26
218
94
32
218
94
32
223
104
29
224
92
25
224
92
25
221
103
45
3
6
1
7
0
0
0
1
5
0
2
0
222
97
26
224
92
25
222
97
26
7
0
0
7
0
0
0
2
0
0
2
0
0
2
0
2
0
5
198
99
52
224
92
25
224
92
25
222
97
26
7
0
0
255
251
250
241
243
239
7
0
0
0
2
0
7
0
0
237
232
231
253
248
246
7
0
0
0
2
0
7
0
0
7
0
0
0
2
0
0
2
0
0
2
0
0
2
0
0
2
0
0
2
0
0
2
0
7
0
0
7
0
0
0
2
0
0
2
0
0
2
0
0
2
0
0
2
0
0
2
0
0
2
0
0
2
0
28
24
23
254
252
255
251
253
250
254
255
252
7
0
0
255
251
250
254
255
252
254
255
252
0
2
0
0
2
0
0
2
0
0
2
0
0
2
0
0
2
0
0
2
0
0
2
0
0
2
0
0
2
0
0
2
0
0
2
0
0
2
0
0
2
0
249
244
242
248
254
255
254
252
255
213
203
196
0
2
0
0
2
0
222
104
38
224
92
25
219
94
23
92
35
19
0
2
0
0
2
0
0
2
0
0
2
0
0
2
0
0
2
0
0
2
0
0
2
0
0
1
5
2
0
5
224
92
25
222
97
26
219
94
23
222
97
26
219
94
23
224
92
25
224
92
25
224
92
25
224
92
25
219
94
23
222
97
26
219
94
23
7
0
0
7
0
0
0
1
5
7
0
0
219
94
23
224
92
25
224
92
25
7
0
0
0
2
0
0
2
0
0
2
0
0
1
5
0
2
0
7
0
0
224
92
25
224
92
25
222
97
26
17
2
3
56
51
50
238
243
246
22
8
9
0
1
5
7
0
0
249
244
242
133
121
122
7
0
0
181
175
174
249
244
242
248
250
246
0
2
0
0
2
0
0
2
0
0
2
0
0
2
0
148
143
142
243
245
242
241
243
239
248
250
246
22
18
17
0
1
5
7
0
0
0
2
0
0
2
0
0
2
0
0
2
0
0
2
0
0
2
0
254
255
252
254
255
252
254
255
252
71
59
55
254
255
252
254
252
255
217
211
209
0
2
0
0
2
0
0
2
0
0
2
0
0
2
0
0
2
0
0
2
0
0
2
0
0
2
0
0
2
0
0
2
0
0
2
0
0
2
0
2
0
5
187
182
181
254
255
252
254
255
252
217
211
209
0
2
0
0
2
0
222
104
38
224
92
25
219
94
23
87
36
16
0
2
0
0
2
0
0
2
0
0
2
0
0
2
0
0
2
0
0
2
0
0
2
0
0
1
5
57
17
8
225
93
26
222
97
26
220
95
11
221
103
45
221
103
45
221
103
45
221
103
45
221
103
45
216
105
43
217
99
33
224
92
25
225
93
26
184
89
43
0
2
0
0
1
5
7
0
0
219
94
23
224
92
25
224
92
25
7
0
0
0
2
0
0
2
0
0
2
0
0
2
0
0
2
0
2
0
5
224
92
25
224
92
25
222
97
26
17
2
3
0
2
0
249
244
242
198
193
191
0
1
5
119
114
112
241
243
239
0
2
0
254
253
244
251
253
250
230
217
218
243
245
242
0
2
0
0
2
0
0
2
0
0
2
0
7
0
0
241
243
239
104
92
91
0
2
0
230
224
223
241
243
239
0
2
0
0
2
0
0
2
0
0
2
0
0
2
0
0
2
0
0
2
0
0
1
5
128
124
122
254
255
252
248
254
255
254
255
252
254
255
252
251
253
250
0
2
0
0
2
0
0
2
0
0
2
0
0
2
0
0
2
0
14
7
6
0
2
0
0
2
0
0
2
0
0
2
0
0
2
0
0
2
0
0
2
0
0
2
0
254
255
252
248
254
255
254
255
252
148
143
142
0
2
0
0
2
0
222
104
38
224
92
25
219
94
23
87
36
16
0
2
0
0
2
0
0
2
0
0
2
0
0
2
0
0
2
0
0
2
0
0
1
5
0
2
0
216
105
43
220
95
11
224
92
25
168
74
38
0
2
0
0
1
5
0
2
0
0
2
0
0
2
0
0
2
0
35
4
5
224
92
25
224
92
25
218
94
32
7
0
0
0
1
5
7
0
0
219
94
23
224
92
25
224
92
25
7
0
0
0
2
0
0
2
0
0
2
0
0
2
0
7
0
0
171
88
54
218
94
32
219
94
23
219
94
23
0
2
0
0
1
5
206
193
194
249
244
242
0
2
0
249
244
242
244
241
246
2
0
5
7
0
0
9
1
0
155
149
147
243
245
242
0
2
0
0
2
0
0
2
0
0
2
0
148
143
142
247
245
249
0
2
0
7
0
0
28
24
23
238
243
246
38
27
23
0
1
5
0
2
0
0
2
0
0
2
0
0
2
0
0
2
0
0
2
0
7
0
0
251
253
250
254
255
252
254
255
252
254
255
252
254
255
252
7
0
0
0
2
0
0
2
0
0
2
0
0
2
0
0
2
0
245
239
238
248
250
246
176
169
168
10
3
1
0
2
0
7
0
0
0
2
0
119
114
112
254
255
252
251
253
250
254
252
255
254
255
252
0
2
0
0
2
0
0
2
0
222
104
38
224
92
25
224
92
25
161
67
31
121
53
26
121
53
26
119
52
31
121
53
26
121
53
26
119
52
31
119
52
31
83
39
22
7
0
0
224
92
25
218
94
32
224
92
25
7
0
0
0
2
0
0
2
0
0
2
0
0
2
0
0
2
0
0
2
0
0
2
0
222
97
26
219
94
23
224
92
25
65
24
11
0
1
5
0
2
0
219
94
23
224
92
25
222
97
26
124
50
32
119
52
31
132
61
31
154
70
37
187
83
42
218
94
32
225
93
26
219
94
23
222
97
26
117
44
27
7
0
0
0
2
0
9
1
0
238
243
246
56
39
37
249
244
242
28
24
23
0
2
0
0
2
0
0
2
0
148
143
142
247
245
249
0
2
0
0
2
0
0
2
0
0
2
0
161
156
155
249
244
242
0
2
0
0
2
0
19
13
12
240
246
248
37
28
28
7
0
0
0
2
0
0
2
0
0
2
0
0
2
0
0
2
0
0
2
0
0
1
5
237
232
231
254
255
252
254
255
252
254
255
252
114
103
103
0
2
0
0
2
0
0
2
0
0
2
0
0
2
0
0
2
0
245
239
238
248
254
255
251
253
250
254
255
252
248
254
255
251
253
250
251
253
250
251
253
250
254
255
252
254
255
252
254
255
252
114
103
103
0
2
0
0
2
0
0
2
0
222
104
38
224
92
25
224
92
25
224
92
25
219
94
23
219
94
23
224
92
25
224
92
25
224
92
25
224
92
25
224
92
25
141
63
33
145
63
28
219
94
23
224
92
25
221
103
45
7
0
0
0
2
0
0
2
0
0
2
0
0
2
0
0
2
0
2
0
5
7
0
0
161
77
39
219
94
23
219
94
23
216
105
43
0
2
0
0
2
0
219
94
23
222
97
26
224
92
25
224
92
25
224
92
25
224
92
25
224
92
25
222
91
33
224
92
25
219
94
23
225
93
26
141
63
33
0
1
5
0
1
5
0
2
0
2
0
5
249
244
242
243
245
242
241
243
239
7
0
0
0
2
0
0
2
0
0
2
0
148
143
142
249
244
242
0
2
0
0
2
0
155
149
147
152
140
141
42
38
37
241
243
239
30
20
19
7
0
0
152
140
141
240
246
248
0
2
0
7
0
0
0
2
0
0
2
0
0
2
0
0
2
0
0
2
0
0
2
0
0
2
0
22
18
17
254
255
252
254
255
252
255
251
250
0
2
0
0
2
0
0
2
0
0
2
0
0
2
0
0
2
0
0
2
0
152
140
141
254
255
252
255
251
250
254
255
252
254
255
252
254
255
252
248
254
255
254
255
252
254
255
252
253
248
246
7
0
0
7
0
0
0
2
0
0
2
0
7
0
0
222
104
38
219
94
23
219
94
23
219
94
23
219
94
23
219
94
23
219
94
23
219
94
23
219
94
23
222
97
26
219
94
23
147
63
36
218
94
32
224
92
25
224
92
25
102
37
18
0
1
5
0
2
0
0
2
0
0
2
0
0
2
0
0
2
0
0
2
0
7
0
0
7
0
0
218
94
32
219
94
23
219
94
23
7
0
0
0
2
0
219
94
23
219
94
23
219
94
23
219
94
23
219
94
23
224
92
25
219
94
23
219
94
23
222
97
26
191
85
38
17
2
3
7
0
0
0
2
0
0
2
0
0
2
0
0
2
0
76
71
70
238
243
246
181
175
174
0
2
0
7
0
0
187
182
181
249
244
242
244
241
246
240
246
248
249
244
242
253
248
246
254
255
252
243
245
242
2
0
5
239
230
223
240
246
248
243
245
242
243
245
242
141
129
129
7
0
0
0
2
0
0
2
0
0
2
0
0
2
0
0
2
0
0
2
0
0
2
0
0
2
0
7
0
0
10
3
1
10
3
1
10
3
1
0
2
0
0
2
0
0
2
0
0
2
0
0
2
0
0
2
0
0
2
0
0
2
0
7
0
0
10
3
1
30
20
19
86
81
80
128
124
122
99
94
92
22
18
17
7
0
0
7
0
0
0
2
0
0
2
0
0
2
0
0
1
5
2
0
5
10
3
1
10
3
1
10
3
1
10
3
1
10
3
1
10
3
1
10
3
1
10
3
1
10
3
1
10
3
1
10
3
1
10
3
1
10
3
1
10
3
1
10
3
1
7
0
0
0
2
0
0
2
0
0
2
0
0
2
0
0
2
0
0
2
0
0
2
0
7
0
0
0
2
0
17
2
3
10
3
1
10
3
1
3
6
1
7
0
0
10
3
1
10
3
1
10
3
1
10
3
1
10
3
1
10
3
1
9
1
0
2
0
5
7
0
0
0
2
0
2
0
5
7
0
0
0
2
0
0
2
0
0
2
0
0
2
0
7
0
0
10
3
1
7
0
0
0
2
0
0
2
0
9
1
0
10
3
1
10
3
1
10
3
1
10
3
1
10
3
1
0
1
5
3
6
1
7
0
0
2
0
5
14
7
6
22
18
17
10
3
1
7
0
0
0
2
0
0
2
0
0
2
0
0
2
0
0
2
0
0
2
0
0
2
0
0
2
0
0
2
0
0
2
0
0
2
0
0
2
0
0
2
0
0
2
0
0
2
0
0
2
0
0
2
0
0
2
0
0
2
0
0
2
0
0
2
0
0
2
0
0
2
0
0
2
0
8
11
6
14
16
12
8
11
6
0
2
0
0
2
0
0
2
0
0
2
0
0
2
0
0
2
0
0
2
0
0
2
0
7
0
0
7
0
0
0
2
0
0
2
0
0
2
0
0
2
0
0
2
0
0
2
0
0
2
0
0
2
0
0
2
0
0
2
0
0
2
0
0
2
0
0
1
5
0
2
0
0
1
5
0
2
0
0
2
0
0
2
0
0
2
0
0
2
0
0
2
0
0
2
0
0
2
0
7
0
0
0
2
0
0
1
5
0
2
0
2
0
5
0
2
0
0
2
0
0
2
0
0
2
0
0
1
5
0
2
0
7
0
0
2
0
5
0
2
0
0
2
0
0
2
0
0
2
0
0
2
0
0
2
0
0
2
0
0
2
0
0
2
0
0
2
0
0
2
0
0
2
0
0
2
0
0
2
0
0
2
0
0
2
0
0
2
0
0
2
0
0
2
0
0
2
0
0
2
0
0
2
0
0
2
0
0
2
0
0
2
0
0
2
0
0
2
0
0
2
0
0
2
0
0
2
0
0
2
0
0
2
0
0
2
0
0
2
0
0
2
0
0
2
0
0
2
0
86
88
85
86
88
85
86
88
85
0
2
0
0
2
0
0
2
0
0
2
0
0
2
0
0
2
0
0
2
0
14
16
12
90
92
89
86
88
85
86
88
85
86
88
85
86
88
85
86
88
85
86
88
85
86
88
85
78
80
77
0
2
0
0
2
0
0
2
0
0
2
0
0
2
0
76
27
13
75
26
3
75
26
3
75
25
0
75
26
3
75
26
3
75
25
0
75
26
3
75
25
0
75
26
3
75
26
3
38
8
1
75
26
3
75
26
3
75
26
3
22
6
0
0
2
0
0
2
0
0
2
0
0
2
0
0
2
0
0
2
0
0
2
0
0
2
0
7
0
0
75
26
3
69
26
0
75
26
3
9
1
0
0
2
0
75
26
3
75
25
0
75
25
0
75
26
3
75
25
0
75
26
3
75
25
0
75
26
3
63
27
12
34
12
10
7
0
0
0
2
0
0
2
0
0
2
0
0
2
0
0
2
0
14
16
12
82
84
81
31
33
30
0
2
0
0
2
0
57
58
56
82
84
81
82
84
81
82
84
81
82
84
81
86
88
85
82
84
81
82
84
81
0
2
0
48
50
47
82
84
81
82
84
81
78
80
77
14
16
12
0
2
0
0
2
0
0
2
0
0
2
0
0
2
0
0
2
0
0
2
0
0
2
0
0
2
0
66
68
65
78
80
77
78
80
77
78
80
77
25
27
24
0
2
0
0
2
0
0
2
0
0
2
0
0
2
0
0
2
0
69
70
68
78
80
77
78
80
77
78
80
77
78
80
77
78
80
77
78
80
77
78
80
77
78
80
77
78
80
77
78
80
77
8
11
6
0
2
0
0
2
0
0
2
0
65
24
11
65
23
2
65
23
2
69
21
3
69
21
3
65
23
2
65
23
2
69
21
3
65
23
2
65
23
2
65
23
2
32
6
4
45
17
7
65
23
2
65
23
2
56
26
11
0
2
0
0
2
0
0
2
0
0
2
0
0
2
0
0
2
0
0
2
0
0
2
0
32
13
1
60
23
0
69
21
3
65
23
2
0
2
0
2
0
5
65
23
2
69
21
3
65
23
2
65
23
2
69
21
3
65
23
2
69
21
3
65
23
2
65
23
2
65
23
2
65
23
2
22
8
9
0
2
0
0
2
0
0
2
0
0
2
0
72
73
71
72
73
71
74
76
73
0
2
0
0
2
0
0
2
0
0
2
0
45
46
44
74
76
73
0
2
0
0
2
0
72
73
71
69
70
68
3
6
1
72
73
71
18
19
17
0
2
0
61
62
60
72
73
71
0
2
0
0
2
0
0
2
0
0
2
0
0
2
0
0
2
0
0
2
0
0
2
0
0
2
0
69
70
68
69
70
68
69
70
68
69
70
68
69
70
68
0
2
0
0
2
0
0
2
0
0
2
0
0
2
0
0
2
0
61
62
60
72
73
71
57
58
56
25
27
24
8
11
6
8
11
6
18
19
17
45
46
44
69
70
68
69
70
68
69
70
68
69
70
68
0
2
0
0
2
0
0
2
0
55
20
0
58
17
0
58
17
0
45
17
7
41
13
7
39
11
4
39
11
4
39
11
4
39
11
4
39
11
4
39
11
4
17
2
3
7
0
0
61
20
5
55
20
0
61
20
5
7
0
0
0
2
0
0
2
0
0
2
0
0
2
0
0
2
0
0
2
0
0
2
0
53
19
5
58
17
0
58
17
0
22
8
9
0
2
0
0
1
5
58
17
0
58
17
0
58
17
0
39
11
4
37
14
5
39
11
4
45
12
1
53
19
5
58
17
0
58
17
0
55
20
0
58
17
0
10
3
1
0
2
0
0
2
0
0
2
0
66
68
65
21
22
20
66
68
65
3
6
1
0
2
0
0
2
0
0
2
0
38
39
37
66
68
65
0
2
0
0
2
0
0
2
0
0
2
0
38
39
37
66
68
65
0
2
0
0
2
0
3
6
1
66
68
65
3
6
1
0
2
0
0
2
0
0
2
0
0
2
0
0
2
0
0
2
0
0
2
0
14
16
12
61
62
60
61
62
60
61
62
60
61
62
60
61
62
60
0
2
0
0
2
0
0
2
0
0
2
0
0
2
0
0
2
0
0
2
0
0
2
0
0
2
0
0
2
0
0
2
0
0
2
0
0
2
0
0
2
0
0
2
0
61
62
60
61
62
60
61
62
60
25
27
24
0
2
0
0
2
0
47
18
0
49
14
0
49
14
0
14
7
6
0
2
0
0
2
0
0
2
0
0
2
0
0
2
0
0
2
0
0
2
0
0
2
0
0
2
0
49
16
8
53
14
2
53
14
2
22
6
0
0
2
0
0
2
0
0
2
0
0
2
0
0
2
0
7
0
0
7
0
0
53
14
2
53
14
2
53
14
2
2
0
5
0
2
0
2
0
5
49
14
0
53
14
2
49
14
0
0
1
5
0
2
0
0
2
0
0
2
0
0
2
0
7
0
0
45
17
7
53
14
2
53
14
2
49
14
0
0
2
0
0
2
0
28
30
27
57
58
56
0
2
0
55
56
54
48
50
47
0
2
0
0
2
0
0
2
0
31
33
30
55
56
54
0
2
0
0
2
0
0
2
0
0
2
0
35
36
34
57
58
56
0
2
0
0
2
0
3
6
1
57
58
56
3
6
1
0
2
0
0
2
0
0
2
0
0
2
0
0
2
0
0
2
0
0
2
0
51
53
50
51
53
50
51
53
50
18
19
17
51
53
50
51
53
50
35
36
34
0
2
0
0
2
0
0
2
0
0
2
0
0
2
0
0
2
0
0
2
0
0
2
0
0
2
0
0
2
0
0
2
0
0
2
0
0
2
0
0
2
0
35
36
34
51
53
50
51
53
50
42
44
41
0
2
0
0
2
0
42
14
1
45
12
1
42
14
1
10
3
1
0
2
0
0
2
0
0
2
0
0
2
0
0
2
0
0
2
0
0
2
0
0
2
0
0
2
0
10
3
1
45
12
1
45
12
1
39
11
4
34
12
10
37
14
5
32
13
1
32
13
1
32
13
1
32
13
1
39
11
4
45
12
1
45
12
1
30
11
7
0
2
0
0
2
0
0
2
0
42
14
1
45
12
1
42
14
1
0
2
0
0
1
5
0
2
0
0
2
0
0
2
0
0
2
0
7
0
0
45
12
1
42
14
1
45
12
1
7
0
0
0
2
0
48
50
47
42
44
41
0
2
0
31
33
30
48
50
47
0
2
0
48
50
47
45
46
44
35
36
34
48
50
47
0
2
0
0
2
0
0
2
0
0
2
0
3
6
1
48
50
47
3
6
1
0
2
0
28
30
27
48
50
47
0
2
0
0
2
0
0
2
0
0
2
0
0
2
0
0
2
0
0
2
0
7
0
0
46
42
41
43
41
45
43
41
45
0
1
5
43
41
45
43
41
45
42
44
41
0
2
0
0
2
0
0
1
5
0
2
0
0
2
0
0
2
0
0
2
0
0
2
0
0
2
0
0
2
0
0
2
0
0
2
0
0
2
0
7
0
0
32
31
34
43
41
45
43
41
45
38
36
40
0
2
0
0
2
0
30
11
7
34
9
0
34
9
0
10
3
1
0
2
0
0
2
0
0
2
0
0
2
0
0
2
0
0
2
0
0
2
0
0
2
0
0
2
0
0
2
0
32
6
4
34
9
0
38
8
1
38
8
1
38
8
1
34
9
0
38
8
1
38
8
1
34
9
0
38
8
1
34
9
0
34
9
0
7
0
0
0
2
0
7
0
0
0
1
5
38
8
1
34
9
0
38
8
1
0
2
0
7
0
0
0
2
0
0
2
0
0
2
0
0
2
0
7
0
0
34
9
0
34
9
0
38
8
1
7
0
0
2
0
5
42
38
37
3
6
1
0
2
0
2
0
5
38
36
40
14
7
6
2
0
5
38
36
40
43
41
45
42
38
37
0
2
0
0
2
0
0
2
0
0
2
0
0
2
0
38
34
33
42
38
37
43
41
45
42
38
37
19
13
12
0
2
0
0
2
0
0
1
5
0
1
5
0
1
5
0
1
5
0
1
5
13
18
20
31
33
30
31
33
30
21
22
20
0
2
0
32
31
34
32
31
34
32
31
34
0
1
5
2
0
5
0
2
0
0
1
5
0
1
5
0
1
5
0
1
5
0
1
5
0
1
5
0
1
5
0
2
0
0
2
0
0
2
0
8
11
6
31
33
30
29
33
35
31
33
30
18
19
17
2
0
5
0
1
5
22
6
0
28
7
2
28
7
2
9
1
0
0
1
5
0
1
5
0
1
5
0
1
5
0
1
5
0
1
5
0
1
5
0
1
5
0
1
5
0
2
0
17
2
3
28
7
2
28
7
2
28
7
2
28
7
2
28
7
2
28
7
2
28
7
2
28
7
2
28
7
2
28
7
2
22
6
0
0
2
0
0
1
5
0
1
5
0
1
5
28
7
2
22
6
0
28
7
2
2
0
5
0
2
0
0
2
0
0
2
0
0
2
0
0
2
0
9
1
0
28
7
2
28
7
2
28
7
2
0
1
5
25
27
24
29
33
35
2
0
5
0
1
5
0
2
0
25
27
24
28
30
27
0
2
0
0
2
0
0
2
0
0
1
5
0
1
5
0
1
5
0
1
5
0
1
5
0
1
5
0
1
5
0
2
0
0
1
5
0
1
5
0
1
5
0
1
5
0
1
5
